<svg width="21" height="21" viewBox="0 0 21 21" fill="none" xmlns="http://www.w3.org/2000/svg">
<path d="M5.21345 13.6345C7.05361 12.886 8.81579 12.5117 10.5 12.5117C12.1842 12.5117 13.9308 12.886 15.7398 13.6345C17.5799 14.3519 18.5 15.3031 18.5 16.4883V18.5H2.5V16.4883C2.5 15.3031 3.40448 14.3519 5.21345 13.6345ZM13.307 9.33041C12.5273 10.1101 11.5916 10.5 10.5 10.5C9.40838 10.5 8.47271 10.1101 7.69298 9.33041C6.91326 8.55068 6.52339 7.61501 6.52339 6.52339C6.52339 5.43177 6.91326 4.4961 7.69298 3.71637C8.47271 2.90546 9.40838 2.5 10.5 2.5C11.5916 2.5 12.5273 2.90546 13.307 3.71637C14.0867 4.4961 14.4766 5.43177 14.4766 6.52339C14.4766 7.61501 14.0867 8.55068 13.307 9.33041Z" fill="#222222"/>
</svg>
