<svg width="21" height="21" viewBox="0 0 21 21" fill="none" xmlns="http://www.w3.org/2000/svg">
<path d="M20.043 16.6663C20.2344 16.7757 20.3164 16.9671 20.2891 17.2405C20.2891 17.4866 20.1797 17.7054 19.9609 17.8968L17.9512 19.9066C17.541 20.3167 17.1309 20.3167 16.7207 19.9066L8.76367 11.9495C7.7793 12.3597 6.72656 12.4554 5.60547 12.2366C4.51172 11.9905 3.55469 11.4573 2.73438 10.637C1.85938 9.76203 1.3125 8.72297 1.09375 7.51984C0.875 6.31672 1.03906 5.19563 1.58594 4.15656L5.44141 7.93L8.06641 5.305L4.29297 1.53156C5.33203 1.03938 6.45312 0.888984 7.65625 1.08039C8.85938 1.2718 9.89844 1.805 10.7734 2.68C11.5938 3.50031 12.1133 4.47102 12.332 5.59211C12.5781 6.68586 12.4961 7.72492 12.0859 8.7093L20.043 16.6663Z" fill="#222222"/>
</svg>
